Coordinates
version=1
nRows=7
nColumns=63
inDegrees=yes

Units are S.I. units (second, meters, Newtons, ...)
If the header above contains a line with 'inDegrees', this indicates whether rotational values are in degrees (yes) or radians (no).

endheader
time	pelvis_tilt	pelvis_list	pelvis_rotation	pelvis_tx	pelvis_ty	pelvis_tz	hip_flexion_r	hip_adduction_r	hip_rotation_r	knee_angle_r	knee_angle_r_beta	ankle_angle_r	subtalar_angle_r	mtp_angle_r	hip_flexion_l	hip_adduction_l	hip_rotation_l	knee_angle_l	knee_angle_l_beta	ankle_angle_l	subtalar_angle_l	mtp_angle_l	L5_S1_Flex_Ext	L5_S1_Lat_Bending	L5_S1_axial_rotation	L4_L5_Flex_Ext	L4_L5_Lat_Bending	L4_L5_axial_rotation	L3_L4_Flex_Ext	L3_L4_Lat_Bending	L3_L4_axial_rotation	L2_L3_Flex_Ext	L2_L3_Lat_Bending	L2_L3_axial_rotation	L1_L2_Flex_Ext	L1_L2_Lat_Bending	L1_L2_axial_rotation	L1_T12_Flex_Ext	L1_T12_Lat_Bending	L1_T12_axial_rotation	Abs_r3	Abs_r2	Abs_r1	Abs_t1	Abs_t2	neck_flexion	neck_bending	neck_rotation	arm_flex_r	arm_add_r	arm_rot_r	elbow_flex_r	pro_sup_r	wrist_flex_r	wrist_dev_r	arm_flex_l	arm_add_l	arm_rot_l	elbow_flex_l	pro_sup_l	wrist_flex_l	wrist_dev_l
     13.73333333	      6.20224764	      2.90781013	   -173.59347795	      0.87543801	      0.89516073	      0.48474931	     36.37053488	     -3.97596925	    -10.12573196	     37.20486425	      0.64934738	      9.85113808	    -14.84129596	      0.00000000	      4.12410006	     -2.97417322	    -15.04093547	     12.71536811	      0.22192504	     27.44310523	     14.86150571	      0.00000000	     -0.00075920	      0.19707588	     -2.22000339	     -0.00140991	      0.26211092	     -2.35875360	     -0.00124729	      0.47917030	     -2.35875360	     -0.00086769	      0.47917030	     -1.94250296	     -0.00070499	      0.40187714	     -1.80375275	     -0.00043381	      0.30527054	     -1.66500254	     -0.00542290	      2.22936177	    -12.34699284	      0.00000000	      0.00000000	     -0.00000000	      0.00000000	      0.00000000	     -8.74481887	    -12.67812802	     20.03015362	     22.51743472	     39.52833673	      0.00000000	      5.00000014	      0.56663957	    -15.81356687	     -6.41728833	     36.86437992	     41.81003926	      0.00000000	      5.00000014
     13.76666667	      6.51971013	      3.28608496	   -172.84973050	      0.84027114	      0.89014666	      0.48637166	     35.68066813	     -3.80353407	    -13.78376026	     26.85190589	      0.46865417	      7.65711851	     -8.84935580	      0.00000000	      1.83065757	     -3.28129499	    -14.85073340	     12.25911121	      0.21396185	     28.79680327	     15.12990141	      0.00000000	      0.00183776	      0.25797049	     -2.47589059	      0.00341291	      0.34310075	     -2.63063375	      0.00301926	      0.62722946	     -2.63063375	      0.00210038	      0.62722946	     -2.16640426	      0.00170655	      0.52605343	     -2.01166110	      0.00105010	      0.39959629	     -1.85691794	      0.01312695	      2.91821380	    -13.77016068	      0.00000000	      0.00000000	     -0.00000000	      0.00000000	      0.00000000	    -10.56536307	    -12.94125166	     16.49313690	     22.62697209	     39.61366958	      0.00000000	      5.00000014	      1.15200333	    -16.87070639	     -5.65456346	     39.30381786	     43.29112425	      0.00000000	      5.00000014
     13.80000000	      6.70460180	      3.50349127	   -171.88136870	      0.80328423	      0.88465193	      0.48713212	     34.64298401	     -3.54402527	    -17.87662150	     18.88275545	      0.32956625	      6.03947275	     -1.73137958	      0.00000000	     -0.24897578	     -3.65449763	    -13.78323882	     12.87418161	      0.22469686	     29.87193713	     14.34262700	      0.00000000	      0.00326220	      0.29121746	     -2.74573060	      0.00605823	      0.38731922	     -2.91733876	      0.00535946	      0.70806613	     -2.91733876	      0.00372837	      0.70806613	     -2.40251428	      0.00302928	      0.59385064	     -2.23090611	      0.00186402	      0.45109584	     -2.05929795	      0.02330155	      3.29431014	    -15.27092989	      0.00000000	      0.00000000	     -0.00000000	      0.00000000	      0.00000000	    -12.30422609	    -12.96890123	     13.38909996	     23.33343987	     39.97762978	      0.00000000	      5.00000014	      1.31914247	    -17.75375111	     -5.14077281	     41.33101367	     44.81563854	      0.00000000	      5.00000014
     13.83333333	      6.78095478	      3.73916777	   -171.39587704	      0.76464922	      0.87961752	      0.48592288	     33.99022751	     -2.46949115	    -18.32729336	     14.26624640	      0.24899297	      4.33034025	      0.38094751	      0.00000000	     -1.93144730	     -4.43355270	    -13.29715582	     14.93746167	      0.26070789	     30.38655524	     13.38956257	      0.00000000	      0.00394145	      0.31712568	     -2.89911495	      0.00731967	      0.42177715	     -3.08030963	      0.00647541	      0.77105937	     -3.08030963	      0.00450468	      0.77105937	     -2.53672558	      0.00366003	      0.64668268	     -2.35553090	      0.00225214	      0.49122767	     -2.17433621	      0.02815338	      3.58738907	    -16.12400761	      0.00000000	      0.00000000	     -0.00000000	      0.00000000	      0.00000000	    -13.50671069	    -13.05833119	     13.11910240	     23.82148665	     40.04351948	      0.00000000	      5.00000014	      1.09481668	    -18.44668882	     -4.67208170	     42.85771260	     45.08395874	      0.00000000	      5.00000014
     13.86666667	      6.68478253	      3.88034343	   -171.57567498	      0.72435803	      0.87589560	      0.48322429	     33.42791125	     -1.33739638	    -18.17785737	     12.91985255	      0.22549397	      4.04669923	      1.72507072	      0.00000000	     -2.98356744	     -5.39970015	    -12.81775823	     18.96788451	      0.33105204	     29.99494005	     11.20767243	      0.00000000	      0.00487009	      0.32920594	     -2.87725081	      0.00904425	      0.43784390	     -3.05707898	      0.00800107	      0.80043132	     -3.05707898	      0.00556603	      0.80043132	     -2.51759446	      0.00452237	      0.67131675	     -2.33776628	      0.00278277	      0.50994000	     -2.15793811	      0.03478658	      3.72404342	    -16.00240583	      0.00000000	      0.00000000	     -0.00000000	      0.00000000	      0.00000000	    -14.46560312	    -13.00789757	     12.96519397	     24.26071677	     40.07049720	      0.00000000	      5.00000014	      0.88011284	    -18.65446542	     -4.28791013	     43.04489796	     45.26820805	      0.00000000	      5.00000014
     13.90000000	      6.49030311	      4.36498783	   -171.45863883	      0.68342679	      0.87388925	      0.48150575	     32.90510427	     -0.50310053	    -19.76186757	     14.31332835	      0.24981471	      4.97341508	      3.34884040	      0.00000000	     -2.54846404	     -5.21473279	     -3.43710301	     25.09410400	      0.43797474	     26.23951781	     -3.65921102	      0.00000000	      0.00314131	      0.39839537	     -2.83918153	      0.00583372	      0.52986584	     -3.01663037	      0.00516085	      0.96865850	     -3.01663037	      0.00359020	      0.96865850	     -2.48428384	      0.00291702	      0.81240784	     -2.30683499	      0.00179494	      0.61711443	     -2.12938615	      0.02243804	      4.50672810	    -15.79067590	      0.00000000	      0.00000000	     -0.00000000	      0.00000000	      0.00000000	    -15.22311372	    -12.90703048	     11.17930297	     24.73257211	     40.08503194	      0.00000000	      5.00000014	      0.81807458	    -18.30296516	     -3.13351180	     41.93947675	     46.36024593	      0.00000000	      5.00000014
     13.93333333	      6.21080646	      4.62417359	   -172.32808067	      0.64131283	      0.87345005	      0.47824531	     32.19003758	      0.67995860	    -19.15249205	     17.08770651	      0.29823674	      6.30770582	      2.75687217	      0.00000000	     -1.23329677	     -5.54465043	     -0.68983115	     33.29737191	      0.58114877	     21.30219733	    -10.82906871	      0.00000000	      0.00129455	      0.44073070	     -2.61921678	      0.00240412	      0.58617183	     -2.78291783	      0.00212682	      1.07159262	     -2.78291783	      0.00147955	      1.07159262	     -2.29181468	      0.00120212	      0.89873804	     -2.12811363	      0.00073971	      0.68269185	     -1.96441258	      0.00924687	      4.98563382	    -14.56729796	      0.00000000	      0.00000000	     -0.00000000	      0.00000000	      0.00000000	    -15.46250520	    -12.98026933	     10.64899509	     25.11569282	     40.11750469	      0.00000000	      5.00000014	      0.25681802	    -17.44507237	     -2.88650591	     40.25514858	     46.84093582	      0.00000000	      5.00000014
